<?xml version="1.0" encoding="utf-8"?>
<!-- Generator: Adobe Illustrator 27.4.0, SVG Export Plug-In . SVG Version: 6.00 Build 0)  -->
<svg version="1.1" id="Layer_1" xmlns="http://www.w3.org/2000/svg" xmlns:xlink="http://www.w3.org/1999/xlink" x="0px" y="0px"
	 viewBox="0 0 23.4 25.7" style="enable-background:new 0 0 23.4 25.7;" xml:space="preserve">
<style type="text/css">
	.st0{fill:#141A25;}
	.st1{fill:#AFE229;}
	.st2{fill:#771BFF;}
</style>
<g>
	<path class="st0" d="M16.2,14.8C16.2,14.9,16.2,14.9,16.2,14.8C16.2,14.9,16.2,14.9,16.2,14.8L16.2,14.8z"/>
	<path class="st1" d="M15.9,17.4c-0.5,0.1-1.1,0.2-1.5,0.5c-0.6,0.3-1.1,0.8-1.4,1.4c-0.1,0.2-0.7,1.3-0.7,1.3l-2.1,3.8l0,0
		c0.1,0.1,0.2,0.1,0.3,0.2c0.3,0.1,0.7,0.2,1,0.2c1.3,0.1,2.5,0,3.8,0c0.7,0,1.4,0,2.2-0.1c0.3,0,0.7-0.1,1-0.3
		c0.3-0.2,0.6-0.4,0.8-0.7c0.1-0.2,0.3-0.4,0.4-0.6c0.6-1,1.2-2,1.8-3.1c0.2-0.3,0.4-0.6,0.6-1c0.1-0.2,0.2-0.3,0.3-0.5
		c0.2-0.4,0.4-0.8,0.4-1.3l-3.3,0.1C19.3,17.4,16.2,17.3,15.9,17.4z M18.6,18.3C18.6,18.3,18.6,18.3,18.6,18.3
		C18.6,18.3,18.6,18.3,18.6,18.3L18.6,18.3z"/>
	<path class="st2" d="M19.6,16.3c0,0,0-0.1,0.1-0.1l0,0C19.7,16.2,19.6,16.3,19.6,16.3L19.6,16.3z"/>
	<path class="st2" d="M7.9,23.3l1.9-3.5c0,0,0.2-0.4,0.5-0.9c-0.3-0.2-0.6-0.3-0.9-0.5c-0.9-0.5-1.8-1-2.6-1.5
		c-0.2-0.1-0.4-0.3-0.6-0.5c-0.3-0.3-0.3-0.7-0.4-1.1c-0.1-1,0-2,0-3.1c0-0.5,0-1,0-1.5c0-0.8,0.4-1.4,1.1-1.8
		c0.7-0.4,1.4-0.8,2.1-1.2c0.6-0.3,1.1-0.6,1.7-1c0.1-0.1,0.3-0.1,0.4-0.2c0.7-0.3,1.3-0.1,1.9,0.2c0,0,0.1,0,0.1,0.1
		c0.3,0.1,0.6,0.3,0.9,0.5c0.8,0.4,1.6,0.9,2.4,1.3c0.2,0.1,0.5,0.3,0.7,0.5c0.5,0.4,0.6,0.9,0.7,1.4c0,0.7,0,1.4,0,2.1
		c0,0.7,0,1.4,0,2.1c1.5,0,3.1,0,3.1,0l1.8,0c0-0.7,0-1.5,0-2.2c0-1.3,0-2.6,0-3.9c-0.1-1.1-0.3-2-1.2-2.7c-0.4-0.3-0.8-0.6-1.3-0.8
		c-1.5-0.8-2.9-1.7-4.4-2.5C15.1,2.3,14.6,2,14,1.7c-0.1,0-0.1-0.1-0.2-0.1c-1.1-0.6-2.2-1-3.5-0.4c-0.2,0.1-0.5,0.2-0.7,0.4
		c-1,0.6-2,1.2-3,1.8C5.3,4,4,4.8,2.8,5.5C1.5,6.3,0.8,7.3,0.8,8.8c0,0.9,0,1.8,0,2.7c0,1.9,0,3.8,0.1,5.7c0,0.8,0.2,1.5,0.7,2.1
		c0.3,0.4,0.7,0.7,1.1,1c1.6,1,3.2,1.8,4.8,2.8C7.6,23.1,7.8,23.2,7.9,23.3z"/>
</g>
</svg>
