<?xml version="1.0" encoding="utf-8"?>
<svg version="1.1" id="Layer_1" xmlns="http://www.w3.org/2000/svg" xmlns:xlink="http://www.w3.org/1999/xlink" x="0px" y="0px"
   viewBox="0 0 100 100" style="enable-background:new 0 0 100 100;" xml:space="preserve">
<style type="text/css">
  .st0{fill:#0287D0;}
  .st1{fill:#FFFFFF;}
</style>
<g>
  <path class="st0" d="M89.8,21.9l-13.5-7.8l0,0l-0.6-0.3l-21-12v0l0,0c-2.9-1.7-6.4-1.7-9.3,0L10.2,21.9c-2.9,1.7-4.7,4.7-4.7,8
    v40.2c0,3.3,1.8,6.4,4.7,8l35.1,20.1c2.9,1.7,6.4,1.7,9.3,0l0,0v0l9.2-5.3l25.9-14.8c2.5-1.4,4.2-4,4.6-6.8c0-0.2,0-0.4,0-0.6
    c0-0.2,0-0.4,0-0.6v0V42.5V29.9C94.4,26.6,92.7,23.5,89.8,21.9z"/>
  <path class="st1" d="M30.7,32.5c-1.3,0-2.3,1-2.3,2.3v1.1c0,1.3,1,2.3,2.3,2.3h39.4c1.3,0,2.3-1,2.3-2.3v-1.1c0-1.3-1-2.3-2.3-2.3
    H30.7L30.7,32.5z"/>
  <path class="st1" d="M30.7,46.8c-1.3,0-2.3,1-2.3,2.3v1.1c0,1.3,1,2.3,2.3,2.3h28.6c1.3,0,2.3-1,2.3-2.3v-1.1c0-1.3-1-2.3-2.3-2.3
    C59.3,46.8,30.7,46.8,30.7,46.8z"/>
  <path class="st1" d="M30.7,61c-1.3,0-2.3,1-2.3,2.3v1.1c0,1.3,1,2.3,2.3,2.3h39.4c1.3,0,2.3-1,2.3-2.3v-1.1c0-1.3-1-2.3-2.3-2.3
    H30.7L30.7,61z"/>
</g>
</svg>
