<?xml version="1.0" encoding="UTF-8"?>
<svg width="100px" height="100px" viewBox="0 0 100 100" version="1.1" xmlns="http://www.w3.org/2000/svg" xmlns:xlink="http://www.w3.org/1999/xlink">
    <!-- Generator: Sketch 47.1 (45422) - http://www.bohemiancoding.com/sketch -->
    <title>ckeditor</title>
    <desc>Created with Sketch.</desc>
    <defs></defs>
    <g id="Icons" stroke="none" stroke-width="1" fill="none" fill-rule="evenodd">
        <g id="ckeditor">
            <circle id="Oval" fill="#43A6C7" cx="50" cy="50" r="50"></circle>
            <path d="M66.7932224,26.4830083 C67.2850108,28.4549098 64.2776091,29.1854621 63.7858207,27.2135606 C63.2347066,25.2402591 62.1322592,23.2609637 58.6648676,24.299994 C56.7426966,25.0441503 55.6116554,22.1985322 57.5338264,21.4543758 C62.1088182,20.0347043 65.7290414,22.0048039 66.7932224,26.4830083 Z M50.1021604,45.1515964 L62.746157,66.5335987 C63.7601345,68.2484716 61.0851195,69.7890689 60.071142,68.074196 L47.470925,46.7663535 C40.3620439,35.7492771 48.250047,30.2014323 54.7059117,39.376623 C58.6678921,44.334637 67.8722045,61.7649005 68.4581806,62.8772229 C71.5886365,68.241502 69.8755983,72.017266 65.8239596,73.8770698 L43.7399282,79.7785045 C40.076824,80.7336775 36.6786304,78.4965448 35.6019398,75.0490047 L25.2152065,37.2516589 C24.3824888,33.9102093 26.0250421,30.8014352 29.1272403,29.8837675 L50.676914,23.6065589 C53.0617268,22.9788335 54.9818668,24.0405297 55.7825864,26.4562219 L56.6083833,28.8316943 C57.1262232,30.403952 58.8100491,31.3371741 60.4360054,30.940633 L62.7808594,30.369231 C64.8106847,29.8752837 66.9086363,31.092006 67.4576805,33.0831919 L75.9333886,63.4434397 C76.480436,65.4030734 73.4943664,66.2150074 72.947319,64.2553738 L64.4703349,33.8903337 C64.3561983,33.4761208 63.940397,33.2350372 63.5233198,33.3368426 C61.9443867,33.7532978 60.5316396,34.0770826 59.6788999,34.0886043 C57.0100946,34.0888398 54.5327159,32.3991442 53.6710245,29.8009713 L52.84523,27.4254605 C52.5058397,26.3949104 52.1118455,26.3941641 51.5137715,26.5495447 L30.0102626,32.813595 C28.5067212,33.2583688 27.7838433,34.7344749 28.2142105,36.4879574 L38.5893634,74.2425694 C39.1167564,76.129281 41.0431841,77.258571 42.9790043,76.8153715 L64.7449337,71.0074026 C66.9923661,69.7857331 68.100166,68.4164842 65.725861,64.3171203 C65.6292333,64.1336159 56.0173896,45.900688 52.2299624,41.2145516 C47.092925,34.4207263 46.0215164,38.6088695 50.1021604,45.1515964 Z" id="icon" fill="#FFFFFF"></path>
        </g>
    </g>
</svg>